# xmcd CD database file
#
# Track frame offsets:
#	150
#	8079
#	9139
#	25403
#	38162
#	39136
#	59935
#	79939
#	104820
#	107379
#	113342
#	128996
#	129970
#	152620
#	180754
#
# Disc length: 2447 seconds
#
# Revision: 0
# Processed by: cddbd v1.5.1PL0 Copyright (c) Steve Scherf et al.
# Submitted via: CDex 1.51
#
DISCID=aa098d0f
DTITLE=S.E.N.S. (Etsushi Toyokawa) - Transparent Time
DYEAR=2004
DGENRE=New Age
TTITLE0=turn the key 
TTITLE1=wind (voice) 
TTITLE2=bon voyage 
TTITLE3=wish ~ relief 
TTITLE4=the time around (voice) 
TTITLE5=flying ~ guitar 
TTITLE6=ramblin' street 
TTITLE7=happiness 
TTITLE8=answer (voice) 
TTITLE9=the moon stone and the earth water ~ reprise 
TTITLE10=forbidden love ~ piano 
TTITLE11=silent (voice) 
TTITLE12=l'oiseau bleu 
TTITLE13=asian blue ~ sea where swims the moon 
TTITLE14=no title (voice) 
EXTD=YEAR: 2004
EXTT0=
EXTT1=
EXTT2=
EXTT3=
EXTT4=
EXTT5=
EXTT6=
EXTT7=
EXTT8=
EXTT9=
EXTT10=
EXTT11=
EXTT12=
EXTT13=
EXTT14=
PLAYORDER=
